# xmcd
#
# Track frame offsets:
#	150
#	16701
#	34443
#	49009
#	65320
#	85206
#	100358
#	117901
#	132219
#	148759
#	166932
#	182105
#	197284
#	213581
#	227581
#	243128
#	257867
#	277586
#	293349
#
# Disc length: 4135 seconds
#
# Revision: 0
# Processed by: cddbd v1.5.2PL0 Copyright (c) Steve Scherf et al.
# Submitted via: audiograbber 1.83.01
#
DISCID=00102513
DTITLE=Various Artist - Hott Country 188
DYEAR=2011
DGENRE=Country
TTITLE0=Chad Brownlee - Love Me or Leave Me
TTITLE1=Dierks Bentley - Home
TTITLE2=Janedear Girls - Merry Go Round
TTITLE3=Luke Bryan - I Don't Want This Night To End
TTITLE4=Brad Paisley - Camoflage
TTITLE5=Aaron Lines - Sunday Afternoon
TTITLE6=Doc Walker - Do It Right
TTITLE7=Pistol Annies - Hell On Wheels
TTITLE8=Jason Blaine - They Don't Make'em Like That Anymore
TTITLE9=George CAnyon Feat Richard Marx - When Love Is All You Got
TTITLE10=Colt Ford - She Likes To Ride In Trucks
TTITLE11=Casey James - Let's Don't Call It A Night
TTITLE12=Jeff Bridges - What A Little Love Can Do
TTITLE13=Chris Cummings - Looking For A Sign
TTITLE14=JT Hodges - Hunt You  Down
TTITLE15=Ryan Laird - She Was The One
TTITLE16=Vince Gill - Threaten Me With Heaven
TTITLE17=Jake Owen - Alone With You
TTITLE18=Jimmy Rankin - I'm Just Sayin'
EXTD=October 2011
EXTT0=
EXTT1=
EXTT2=
EXTT3=
EXTT4=
EXTT5=
EXTT6=
EXTT7=
EXTT8=
EXTT9=
EXTT10=
EXTT11=
EXTT12=
EXTT13=
EXTT14=
EXTT15=
EXTT16=
EXTT17=
EXTT18=
PLAYORDER=
